<?xml version="1.0" encoding="UTF-8"?>
<svg xmlns="http://www.w3.org/2000/svg" xmlns:xlink="http://www.w3.org/1999/xlink" width="32pt" height="32pt" viewBox="0 0 32 32" version="1.1">
<g id="surface1">
<path style=" stroke:none;fill-rule:nonzero;fill:#5F5F5F;fill-opacity:1;" d="M 2.539063 2.539063 L 2.539063 11.429688 L 11.429688 11.429688 L 11.429688 2.539063 Z M 20.316406 2.539063 L 20.316406 11.429688 L 29.207031 11.429688 L 29.207031 2.539063 Z M 3.808594 3.808594 L 10.160156 3.808594 L 10.160156 10.160156 L 3.808594 10.160156 Z M 12.699219 3.808594 L 12.699219 7.617188 L 15.238281 7.617188 L 15.238281 9.523438 L 12.699219 9.523438 L 12.699219 12.699219 L 6.984375 12.699219 L 6.984375 15.238281 L 4.445313 15.238281 L 4.445313 19.046875 L 8.253906 19.046875 L 8.253906 16.507813 L 10.160156 16.507813 L 10.160156 19.046875 L 13.96875 19.046875 L 13.96875 13.96875 L 15.238281 13.96875 L 15.238281 16.507813 L 19.683594 16.507813 L 19.683594 18.414063 L 22.855469 18.414063 L 22.855469 20.316406 L 17.777344 20.316406 L 17.777344 22.855469 L 15.238281 22.855469 L 15.238281 26.667969 L 19.046875 26.667969 L 19.046875 24.128906 L 22.855469 24.128906 L 22.855469 29.207031 L 29.207031 29.207031 L 29.207031 22.855469 L 24.128906 22.855469 L 24.128906 21.585938 L 29.207031 21.585938 L 29.207031 15.238281 L 25.398438 15.238281 L 25.398438 17.144531 L 24.128906 17.144531 L 24.128906 12.699219 L 16.507813 12.699219 L 16.507813 10.792969 L 19.046875 10.792969 L 19.046875 6.347656 L 16.507813 6.347656 L 16.507813 3.808594 Z M 21.585938 3.808594 L 27.9375 3.808594 L 27.9375 10.160156 L 21.585938 10.160156 Z M 5.078125 5.078125 L 5.078125 8.890625 L 8.890625 8.890625 L 8.890625 5.078125 Z M 22.855469 5.078125 L 22.855469 8.890625 L 26.667969 8.890625 L 26.667969 5.078125 Z M 2.539063 20.316406 L 2.539063 29.207031 L 11.429688 29.207031 L 11.429688 20.316406 Z M 3.808594 21.585938 L 10.160156 21.585938 L 10.160156 27.9375 L 3.808594 27.9375 Z M 5.078125 22.855469 L 5.078125 26.667969 L 8.890625 26.667969 L 8.890625 22.855469 Z "/>
</g>
</svg>
